<svg xmlns="http://www.w3.org/2000/svg" width="33" height="39"><path fill="#29be68" d="M30.308 17.303c1.486.002 2.69 1.226 2.692 2.737v3.76a.806.806 0 01-.8.813.806.806 0 01-.798-.813v-3.76a1.105 1.105 0 00-1.094-1.112h-3.115v7.077h2.255c1.486.002 2.69 1.226 2.692 2.737v3.76a.806.806 0 01-.8.813.806.806 0 01-.799-.812v-3.76c0-.615-.49-1.112-1.093-1.113H27.18a9.737 9.737 0 01-2.69 6.247h.415c1.486.002 2.69 1.226 2.692 2.736v1.575a.806.806 0 01-.8.812.806.806 0 01-.799-.812v-1.575c0-.613-.489-1.11-1.093-1.111h-2.46a9.356 9.356 0 01-4.783 1.312h-2.323a9.354 9.354 0 01-4.784-1.312h-2.46c-.604 0-1.093.498-1.094 1.111v1.575a.806.806 0 01-.799.812.806.806 0 01-.799-.812v-1.575c.002-1.51 1.206-2.734 2.692-2.736h.415a9.734 9.734 0 01-2.69-6.247H3.552a1.103 1.103 0 00-1.093 1.112v3.76a.806.806 0 01-.8.813.806.806 0 01-.799-.812v-3.76c.002-1.512 1.206-2.736 2.692-2.738h2.255v-7.077H2.692c-.604 0-1.093.498-1.094 1.112v3.76a.806.806 0 01-.799.813A.806.806 0 010 23.8v-3.76c.001-1.511 1.206-2.735 2.692-2.737h3.116v-1.112a2.735 2.735 0 011.957-2.632 8.942 8.942 0 012.853-5.969L7.011 1.224a.826.826 0 01-.003-.816.797.797 0 01.696-.407c.286 0 .55.158.692.411l3.508 6.193a8.616 8.616 0 019.192 0L24.604.412a.798.798 0 01.693-.411c.286 0 .552.154.695.407a.824.824 0 01-.003.816L22.383 7.59a8.942 8.942 0 012.852 5.969 2.735 2.735 0 011.958 2.632v1.112zM16.5 6.902c-3.676.004-6.753 2.835-7.123 6.553h14.246c-.37-3.718-3.447-6.549-7.123-6.553zM7.405 27.124c.005 4.452 3.554 8.06 7.934 8.065h.362v-20.11H8.499a1.105 1.105 0 00-1.094 1.112zm18.19-10.933c0-.614-.49-1.11-1.094-1.111H17.3v20.109h.363c4.379-.006 7.928-3.613 7.933-8.065z"/></svg>