<svg xmlns="http://www.w3.org/2000/svg" width="41" height="37"><path fill="#29be68" d="M41 16.48v14.865c0 1.336-1.078 2.424-2.402 2.424h-7.116l-2.968 2.994a.795.795 0 01-1.133 0l-2.969-2.994h-7.115c-1.325 0-2.403-1.088-2.403-2.424v-.231l-1.275 1.287a.794.794 0 01-1.132 0l-2.97-2.995H2.403A2.415 2.415 0 010 26.982V12.118c0-1.336 1.078-2.424 2.402-2.424h5.045v-7.27C7.447 1.087 8.525 0 9.85 0h21.3c1.325 0 2.403 1.087 2.403 2.424v11.633h5.045c1.324 0 2.402 1.087 2.402 2.423zm-31.951.808c0 .446.36.808.8.808h7.448c.212 0 .416.085.566.237l2.637 2.66 2.637-2.66a.798.798 0 01.566-.237h7.447a.805.805 0 00.801-.808V2.424a.805.805 0 00-.8-.808H9.85a.805.805 0 00-.801.808zm7.207 10.502h7.447c.442 0 .8-.362.8-.808v-7.27h-.468l-2.969 2.995a.795.795 0 01-1.132 0l-2.969-2.995H9.85c-1.325 0-2.403-1.087-2.403-2.424V11.31H2.402c-.441 0-.8.363-.8.808v14.864c0 .446.359.808.8.808H9.85a.8.8 0 01.566.237l2.637 2.66 2.637-2.66a.798.798 0 01.566-.237zm23.142-11.31a.805.805 0 00-.8-.808h-5.045v1.616c0 1.337-1.078 2.424-2.403 2.424h-5.045v7.27c0 1.337-1.077 2.424-2.402 2.424h-7.115l-.092.092v1.847c0 .445.36.808.8.808h7.448c.212 0 .416.085.566.236l2.637 2.66 2.637-2.66a.798.798 0 01.566-.236h7.448c.441 0 .8-.363.8-.808zM28.748 5.332a.804.804 0 01-.8.808H13.064a.804.804 0 01-.801-.808c0-.446.358-.808.8-.808h14.883c.443 0 .801.362.801.808zm0 4.524a.804.804 0 01-.8.808.804.804 0 01-.801-.808.803.803 0 01.8-.808.803.803 0 01.801.808zm-3.976 0a.804.804 0 01-.801.808H13.065a.804.804 0 01-.801-.808c0-.446.358-.808.8-.808h10.907c.442 0 .8.362.8.808zm3.976 4.524a.804.804 0 01-.8.808H16.981a.804.804 0 01-.8-.808c0-.446.358-.808.8-.808h10.965c.443 0 .801.362.801.808zm-14.827 0a.804.804 0 01-.801.808h-.067a.804.804 0 01-.801-.808c0-.446.358-.808.8-.808h.068c.442 0 .8.362.8.808z"/></svg>