<svg xmlns="http://www.w3.org/2000/svg" width="35" height="35"><path fill="#d5f5e3" d="M23.864 14.318h2.386v1.591h-2.386v2.386h-1.591V15.91h-2.387v-1.59h2.387v-2.387h1.59zM35 17.5C35 27.165 27.165 35 17.5 35S0 27.165 0 17.5 7.835 0 17.5 0 35 7.835 35 17.5zm-1.59 0c0-8.786-7.124-15.909-15.91-15.909-8.786 0-15.909 7.123-15.909 15.909 0 8.786 7.123 15.91 15.909 15.91 8.786 0 15.91-7.124 15.91-15.91zm-14.462 3.341c0 1.432-1.345 3.023-3.834 3.023-2.307 0-3.978-1.066-3.978-2.53 0-1.63 1.735-3.039 3.866-3.023a1.593 1.593 0 01-.167-.7 1.7 1.7 0 010-.358h-.001a2.975 2.975 0 01-2.902-3.046 3.349 3.349 0 013.405-3.07h4.55l-1.67 1.296h-.303c.371.533.564 1.171.549 1.821a2.855 2.855 0 01-1.13 2.212c-.565.445-.565.557-.565.795.19.357.463.662.796.891v-.008a2.96 2.96 0 011.384 2.697zm-3.468-4.622a.86.86 0 00.676-.31 2.012 2.012 0 00.318-1.535c-.135-1.082-.835-2.013-1.63-2.013v-.008a.867.867 0 00-.661.31 1.972 1.972 0 00-.342 1.512v-.016c.135 1.09.883 2.02 1.639 2.06zm1.83 4.789a1.352 1.352 0 000-.31c-.096-.39-.414-.637-1.02-1.066l-.238-.167a2.527 2.527 0 00-.74-.12c-1.185 0-2.227.732-2.227 1.591v.003a1.853 1.853 0 002.029 1.66c1.487 0 2.25-.541 2.195-1.591z"/></svg>