<svg xmlns="http://www.w3.org/2000/svg" width="177" height="42"><path fill="#fff" d="M56.429 7.757c0-1.057.316-1.803.95-2.237.632-.434 1.471-.651 2.517-.651a7.24 7.24 0 012.023.264c.605.177.99.292 1.156.346v5.492h4.746c1.239 0 2.12.244 2.642.732.523.489.785 1.221.785 2.197a5.78 5.78 0 01-.33 1.974c-.221.61-.386 1.01-.496 1.2h-7.347v6.387c0 .624.096 1.119.289 1.485.192.366.433.657.722.874.289.218.619.36.99.428a6.3 6.3 0 001.135.101c.77 0 1.472-.115 2.106-.346.633-.23 1.087-.427 1.362-.59l2.6 4.476c-.247.217-.605.461-1.073.732-.468.271-1.032.529-1.692.773-.66.244-1.403.454-2.23.63-.825.176-1.692.265-2.6.265-2.587 0-4.61-.671-6.067-2.014-1.46-1.342-2.188-3.139-2.188-5.39zm15.107 13.588c0-1.572.303-3.024.908-4.353a10.657 10.657 0 012.498-3.458 11.814 11.814 0 013.694-2.298c1.404-.556 2.917-.834 4.54-.834 1.596 0 3.103.278 4.52.834a11.765 11.765 0 013.716 2.298 10.673 10.673 0 012.497 3.458c.605 1.33.908 2.78.908 4.353s-.303 3.025-.908 4.353a10.67 10.67 0 01-2.497 3.458 11.747 11.747 0 01-3.715 2.299 12.272 12.272 0 01-4.52.834c-1.624 0-3.137-.279-4.541-.834a11.795 11.795 0 01-3.694-2.299 10.654 10.654 0 01-2.498-3.458c-.605-1.328-.908-2.78-.908-4.353zm11.64 5.086a4.75 4.75 0 001.92-.387 4.887 4.887 0 001.548-1.058c.44-.447.777-.982 1.011-1.607a5.755 5.755 0 00.351-2.034 5.77 5.77 0 00-.35-2.034 4.532 4.532 0 00-1.012-1.607c-.44-.447-.956-.8-1.548-1.058a4.76 4.76 0 00-1.92-.386c-.715 0-1.362.129-1.94.386a4.95 4.95 0 00-1.527 1.058c-.44.448-.778.983-1.011 1.607a5.747 5.747 0 00-.35 2.034c0 .733.116 1.41.35 2.034a4.51 4.51 0 001.011 1.607c.44.448.95.8 1.528 1.058.577.258 1.224.387 1.94.387zM97.17 4.625c0-1.058.316-1.804.949-2.238.633-.433 1.472-.65 2.518-.65A7.23 7.23 0 01102.66 2c.606.176.991.291 1.156.345V31.72H97.17zm8.998 16.72c0-1.572.302-3.024.908-4.353a10.659 10.659 0 012.497-3.458 11.814 11.814 0 013.695-2.298c1.403-.556 2.916-.834 4.54-.834 1.596 0 3.102.278 4.52.834a11.771 11.771 0 013.715 2.298 10.675 10.675 0 012.497 3.458c.605 1.33.908 2.78.908 4.353s-.303 3.025-.908 4.353a10.672 10.672 0 01-2.497 3.458 11.752 11.752 0 01-3.715 2.299 12.272 12.272 0 01-4.52.834c-1.624 0-3.137-.279-4.54-.834a11.795 11.795 0 01-3.695-2.299 10.656 10.656 0 01-2.497-3.458c-.606-1.328-.908-2.78-.908-4.353zm11.64 5.086a4.75 4.75 0 001.92-.387 4.884 4.884 0 001.547-1.058c.44-.447.778-.982 1.012-1.607.233-.623.35-1.301.35-2.034a5.76 5.76 0 00-.35-2.034 4.535 4.535 0 00-1.012-1.607c-.44-.447-.956-.8-1.547-1.058a4.759 4.759 0 00-1.92-.386c-.716 0-1.362.129-1.94.386a4.952 4.952 0 00-1.527 1.058c-.44.448-.778.983-1.011 1.607a5.742 5.742 0 00-.351 2.034c0 .733.116 1.41.35 2.034.234.625.571 1.16 1.012 1.607.44.448.95.8 1.527 1.058.578.258 1.224.387 1.94.387zm13.167-7.283c0-1.41.275-2.664.826-3.763a7.768 7.768 0 012.27-2.746c.963-.732 2.078-1.288 3.343-1.668 1.266-.38 2.628-.57 4.087-.57 1.43 0 2.786.19 4.066.57 1.28.38 2.394.936 3.343 1.668a7.872 7.872 0 012.25 2.746c.55 1.099.826 2.353.826 3.763V31.72h-6.646V20.654c0-1.438-.33-2.502-.99-3.194-.661-.691-1.61-1.037-2.849-1.037-2.587 0-3.88 1.41-3.88 4.23V31.72h-6.646zm26.789 14.605c.083.054.302.15.66.285.358.136.819.278 1.383.427.564.149 1.224.285 1.982.407a15.43 15.43 0 002.456.183c.88 0 1.699-.095 2.455-.284.757-.19 1.404-.51 1.94-.957a4.574 4.574 0 001.26-1.708c.302-.692.454-1.552.454-2.583v-.448a8.105 8.105 0 01-.681.57 7 7 0 01-1.239.732c-.51.244-1.108.461-1.795.65-.689.19-1.46.285-2.312.285-1.486 0-2.855-.223-4.107-.67-1.253-.448-2.332-1.105-3.24-1.974-.908-.868-1.61-1.932-2.105-3.193-.496-1.262-.744-2.692-.744-4.292 0-1.6.29-3.058.867-4.374a10.192 10.192 0 012.394-3.397c1.018-.949 2.236-1.688 3.654-2.217 1.417-.529 2.978-.793 4.684-.793 1.9 0 3.654.352 5.263 1.057 1.61.706 2.938 1.736 3.984 3.092.66.869 1.162 1.886 1.507 3.052.343 1.166.515 2.644.515 4.434v6.062c0 2.115-.303 3.939-.908 5.471s-1.444 2.793-2.518 3.784c-1.073.99-2.346 1.722-3.818 2.197-1.472.474-3.075.712-4.809.712-1.211 0-2.325-.075-3.343-.224a25.733 25.733 0 01-2.704-.53 16.578 16.578 0 01-1.94-.61c-.51-.203-.846-.36-1.011-.467zm3.178-12.57c0 1.546.44 2.699 1.321 3.458.88.76 2.009 1.139 3.385 1.139 1.348 0 2.47-.42 3.364-1.261.894-.84 1.342-1.953 1.342-3.336 0-1.384-.448-2.516-1.342-3.398-.895-.88-2.016-1.322-3.364-1.322a4.82 4.82 0 00-1.899.367 4.375 4.375 0 00-1.486 1.016 4.818 4.818 0 00-.97 1.506 4.77 4.77 0 00-.35 1.83zM45.008 14.38v19.065L38.415 42l-5.929-7.693H13.362v-3.158a17.218 17.218 0 0010.803-2.907h9.327v-2.599h-6.3c.737-.8 1.398-1.67 1.97-2.599h8.725v-2.599H30.47a16.591 16.591 0 001.176-6.065zM14.504 28.59c-2.616 0-5.149-.684-7.379-1.986L0 31.518V14.294C0 6.41 6.507-.001 14.504-.001c7.998 0 14.505 6.413 14.505 14.295s-6.507 14.295-14.505 14.295zm-3.955-17.76h2.637c0-.717.591-1.3 1.318-1.3a1.31 1.31 0 011.32 1.3c0 .716-.592 1.299-1.32 1.299h-1.318v4.332h2.637v-1.956c1.535-.536 2.637-1.981 2.637-3.676 0-2.15-1.774-3.898-3.956-3.898-2.18 0-3.955 1.749-3.955 3.898zm2.637 10.829h2.637v-2.6h-2.637z"/></svg>