<svg xmlns="http://www.w3.org/2000/svg" width="77" height="30"><path fill="#dd4a39" d="M3 0h71a3 3 0 013 3v24a3 3 0 01-3 3H3a3 3 0 01-3-3V3a3 3 0 013-3z"/><path fill="#fff" d="M30 14.2v1.3h-2.625v2.6h-1.312v-2.6h-2.625v-1.3h2.625v-2.6h1.312v2.6zm-7.875 0v1.3c0 3.584-2.944 6.5-6.562 6.5C11.943 22 9 19.084 9 15.5S11.944 9 15.563 9a6.54 6.54 0 014.274 1.58l-1.724 1.961a3.901 3.901 0 00-2.55-.941c-2.171 0-3.938 1.75-3.938 3.9s1.767 3.9 3.938 3.9a3.943 3.943 0 003.713-2.6h-3.713v-2.6z"/><text dominant-baseline="text-before-edge" style="line-height:30px" fill="#fff" font-family="'Poppins','Poppins-Regular'" font-size="14" font-style="none" font-weight="400" transform="translate(39 9)"><tspan style="font-kerning:normal">235</tspan></text></svg>