<svg xmlns="http://www.w3.org/2000/svg" width="67" height="30"><path fill="#00a9f4" d="M3 0h61a3 3 0 013 3v24a3 3 0 01-3 3H3a3 3 0 01-3-3V3a3 3 0 013-3z"/><path fill="#fff" d="M26 9.657a7.19 7.19 0 01-2.008.558 3.503 3.503 0 001.533-1.952 6.909 6.909 0 01-2.21.855A3.471 3.471 0 0020.77 8c-1.93 0-3.482 1.587-3.482 3.533 0 .28.023.55.08.806-2.897-.143-5.461-1.55-7.183-3.695a3.594 3.594 0 00-.477 1.786 3.55 3.55 0 001.548 2.935 3.411 3.411 0 01-1.575-.435v.039c0 1.716 1.208 3.142 2.792 3.47a3.434 3.434 0 01-.913.117 3.06 3.06 0 01-.66-.06c.451 1.399 1.733 2.427 3.256 2.46a6.943 6.943 0 01-4.32 1.507 6.55 6.55 0 01-.835-.048A9.717 9.717 0 0014.347 22c6.413 0 9.919-5.385 9.919-10.052a9.13 9.13 0 00-.013-.457A7.004 7.004 0 0026 9.657z"/><text dominant-baseline="text-before-edge" style="line-height:30px" fill="#fff" font-family="'Poppins','Poppins-Regular'" font-size="14" font-style="none" font-weight="400" transform="translate(38 9)"><tspan style="font-kerning:normal">90</tspan></text></svg>