<svg xmlns="http://www.w3.org/2000/svg" width="58" height="55"><path fill="#29be68" d="M15.517 34.992a1.132 1.132 0 01-1.547-.416 1.133 1.133 0 011.962-1.135 1.137 1.137 0 01-.415 1.55zm-4.642 7.835c-3.585 1.438-7.808.07-9.81-3.406-2.193-3.802-.882-8.667 2.902-10.855l9.62-5.567 14.8-18.892a3.367 3.367 0 012.86-1.57h.044a3.369 3.369 0 012.9 1.703l4.18 7.255 4.358-.262c.427-.026.835.193 1.049.565l2.266 3.933c.214.372.2.834-.036 1.193l-2.406 3.652 3.765 6.535c1.272 2.206-.237 4.965-2.755 5.102L22.915 36.48l1.472 2.557a1.136 1.136 0 01-.414 1.55L21.03 42.29l3.398 5.9a4.545 4.545 0 01-1.658 6.203c-2.19 1.269-4.959.477-6.19-1.662zm11.592 6.498c-.106-.183.89 1.547-5.665-9.834l-3.924 2.271 5.664 9.832a2.266 2.266 0 103.925-2.27zm-.608-10.138l-1.133-1.966-1.962 1.135 1.133 1.966zm17.778-25.494l2.699 4.684 1.396-2.119-1.566-2.717zm-9.356-8.341c-.058.095-.096.132-.388.509L43.83 30.054c.395-.075.466-.102.62-.106a1.135 1.135 0 00.954-1.702L32.229 5.375a1.11 1.11 0 00-.966-.567 1.106 1.106 0 00-.982.544zM15.708 23.969L21.717 34.4l19.763-3.885-13.094-22.73zM3.027 38.286a5.665 5.665 0 007.737 2.078l8.83-5.11-5.665-9.83L5.1 30.531a5.7 5.7 0 00-2.834 4.921c0 .99.264 1.97.761 2.833zm8.981-2.575a1.137 1.137 0 01-.415 1.55l-1.962 1.136a3.4 3.4 0 01-4.642-1.246 1.137 1.137 0 01.415-1.551 1.132 1.132 0 011.547.415 1.133 1.133 0 001.548.416l1.962-1.136a1.132 1.132 0 011.547.416zm44.31-30.746a1.13 1.13 0 011.54.44 1.136 1.136 0 01-.438 1.545l-6.312 3.52a1.131 1.131 0 01-1.54-.44 1.137 1.137 0 01.439-1.545zm-.661 11.758a1.135 1.135 0 01-.586 2.193l-4.378-1.175a1.136 1.136 0 01.587-2.193zm-11-15.882a1.132 1.132 0 112.189.587l-1.174 4.387a1.132 1.132 0 11-2.188-.588z"/></svg>