<svg xmlns="http://www.w3.org/2000/svg" width="35" height="35"><path fill="#d5f5e3" d="M24.373 13.157a6.603 6.603 0 001.877-.51 6.611 6.611 0 01-1.59 1.663v.414l-.002.16a9.148 9.148 0 01-9.314 8.98 9.347 9.347 0 01-5.003-1.448c.264.031.53.047.795.048a6.61 6.61 0 004.033-1.392 3.262 3.262 0 01-3.046-2.228c.488.092.991.073 1.471-.055a3.23 3.23 0 01-2.617-3.182v-.04c.455.25.962.389 1.48.406A3.181 3.181 0 0111 13.3c.006-.56.16-1.109.446-1.59a9.315 9.315 0 006.73 3.356 3.185 3.185 0 01-.088-.732 3.238 3.238 0 013.261-3.182 3.285 3.285 0 012.386 1.018 6.609 6.609 0 002.076-.795 3.237 3.237 0 01-1.44 1.782zM35 17.5C35 27.165 27.165 35 17.5 35S0 27.165 0 17.5 7.835 0 17.5 0 35 7.835 35 17.5zm-1.591 0c0-8.786-7.123-15.909-15.909-15.909-8.786 0-15.91 7.123-15.91 15.909 0 8.786 7.124 15.91 15.91 15.91 8.786 0 15.909-7.124 15.909-15.91z"/></svg>