<svg xmlns="http://www.w3.org/2000/svg" width="57" height="51" viewBox="0 0 57 51"><g><g><path fill="#29be68" d="M28.5 11.087c.614 0 1.113.496 1.113 1.109 0 .611-.499 1.108-1.113 1.108a1.111 1.111 0 0 1-1.113-1.108c0-.613.498-1.11 1.113-1.11zM10.02 31.044a1.112 1.112 0 0 1-1.114-1.11c0-.612.5-1.108 1.113-1.108.615 0 1.114.496 1.114 1.109 0 .612-.5 1.109-1.114 1.109zM37.405 0C47.332 0 57 6.997 57 16.63c0 3.875-1.54 7.629-4.343 10.603a6.725 6.725 0 0 0 1.79 6.353 1.107 1.107 0 0 1-.787 1.892c-3.175 0-6.235-1.24-8.508-3.425-1.919.651-4.343 1.08-6.674 1.183-.638 8.666-8.863 15.547-18.884 15.547-2.642 0-5.531-.456-7.746-1.208A12.306 12.306 0 0 1 3.34 51c-.45 0-.856-.27-1.029-.684a1.105 1.105 0 0 1 .242-1.208 6.724 6.724 0 0 0 1.789-6.353C1.539 39.78 0 36.027 0 32.152c0-9.271 8.976-16.125 18.521-16.602C19.157 6.882 27.383 0 37.406 0zM19.594 46.565c9.208 0 16.699-6.465 16.699-14.413 0-8.257-7.81-14.413-16.7-14.413-9.414 0-17.366 6.6-17.366 14.413 0 3.388 1.39 6.681 3.917 9.271.128.132.221.293.271.47a8.932 8.932 0 0 1-.678 6.598 10.052 10.052 0 0 0 4.996-2.953c.313-.34.804-.452 1.234-.281 2.005.795 4.999 1.308 7.627 1.308zm31.262-20.663c2.526-2.59 3.917-5.884 3.917-9.272 0-7.812-7.953-14.413-17.367-14.413-8.788 0-16.013 5.89-16.653 13.337 2.92.157 5.758.904 8.286 2.185H46.98c.615 0 1.114.497 1.114 1.109s-.499 1.108-1.114 1.108H32.46c3.59 2.926 5.69 6.867 6.015 11.06 2.341-.115 4.82-.592 6.56-1.281.428-.17.92-.058 1.233.282a10.05 10.05 0 0 0 4.996 2.952 8.934 8.934 0 0 1-.68-6.598 1.11 1.11 0 0 1 .273-.47zM28.5 28.826c.615 0 1.113.496 1.113 1.109 0 .612-.498 1.109-1.113 1.109H14.473a1.111 1.111 0 0 1-1.114-1.11c0-.612.499-1.108 1.114-1.108zm0 6.652c.615 0 1.113.497 1.113 1.109s-.498 1.109-1.113 1.109H10.02a1.111 1.111 0 0 1-1.114-1.11c0-.611.499-1.108 1.113-1.108zm18.48-24.391c.615 0 1.114.496 1.114 1.109 0 .612-.499 1.108-1.114 1.108H32.953a1.111 1.111 0 0 1-1.113-1.108c0-.613.498-1.11 1.113-1.11z"/></g></g></svg>