<svg xmlns="http://www.w3.org/2000/svg" width="35" height="35" viewBox="0 0 35 35"><g><g><path fill="#d5f5e3" d="M12.727 11.136a1.59 1.59 0 1 1 0 3.182 1.59 1.59 0 0 1 0-3.182zm-1.59 3.978h3.181v8.75h-3.182zM35 17.5C35 27.165 27.165 35 17.5 35S0 27.165 0 17.5 7.835 0 17.5 0 35 7.835 35 17.5zm-1.59 0c0-8.786-7.124-15.909-15.91-15.909-8.786 0-15.91 7.123-15.91 15.909 0 8.786 7.124 15.91 15.91 15.91 8.786 0 15.91-7.124 15.91-15.91zm-8.75 1.59v4.774h-3.183V19.09c0-.883-.238-1.591-1.034-1.591-1.352 0-1.352 1.59-1.352 1.59v4.774h-3.182v-8.75h3.182v1.416s.286-1.416 2.673-1.416c1.813 0 2.895 1.487 2.895 3.977z"/></g></g></svg>