<svg xmlns="http://www.w3.org/2000/svg" width="50" height="50" viewBox="0 0 50 50"><g><g><path fill="#7e7e7e" d="M35.592 35.145a1.088 1.088 0 0 1-1.62 1.45c-2.267-2.534-5.537-3.986-8.972-3.986-3.434 0-6.704 1.452-8.973 3.986-.214.24-.512.361-.81.361a1.088 1.088 0 0 1-.81-1.812c2.681-2.993 6.54-4.71 10.593-4.71s7.913 1.718 10.592 4.71zM50 25c0 13.785-11.214 25-25 25S0 38.785 0 25 11.214 0 25 0s25 11.215 25 25zm-2.174 0c0-12.587-10.24-22.826-22.826-22.826S2.174 12.413 2.174 25 12.414 47.826 25 47.826 47.826 37.587 47.826 25zm-8.696-6.522a5.44 5.44 0 0 1-5.434 5.435 5.44 5.44 0 0 1-5.435-5.435 1.087 1.087 0 1 1 2.174 0 3.265 3.265 0 0 0 3.26 3.261 3.265 3.265 0 0 0 3.261-3.26 1.087 1.087 0 1 1 2.174 0zm-22.826 5.435a5.441 5.441 0 0 1-5.434-5.435 1.087 1.087 0 1 1 2.173 0 3.265 3.265 0 0 0 3.261 3.261 3.265 3.265 0 0 0 3.261-3.26 1.087 1.087 0 1 1 2.174 0 5.44 5.44 0 0 1-5.435 5.434z"/></g></g></svg>