<svg xmlns="http://www.w3.org/2000/svg" width="67" height="30" viewBox="0 0 67 30"><g><g><g><path fill="#00a9f4" d="M3 0h61a3 3 0 0 1 3 3v24a3 3 0 0 1-3 3H3a3 3 0 0 1-3-3V3a3 3 0 0 1 3-3z"/></g><g><path fill="#fff" d="M26 9.657a7.19 7.19 0 0 1-2.008.558 3.503 3.503 0 0 0 1.533-1.952 6.909 6.909 0 0 1-2.21.855A3.471 3.471 0 0 0 20.77 8c-1.93 0-3.482 1.587-3.482 3.533 0 .28.023.55.08.806-2.897-.143-5.461-1.55-7.183-3.695a3.594 3.594 0 0 0-.477 1.786 3.55 3.55 0 0 0 1.548 2.935 3.411 3.411 0 0 1-1.575-.435v.039c0 1.716 1.208 3.142 2.792 3.47a3.434 3.434 0 0 1-.913.117c-.224 0-.449-.013-.66-.06.451 1.399 1.733 2.427 3.256 2.46a6.943 6.943 0 0 1-4.32 1.507c-.287 0-.56-.013-.835-.048A9.717 9.717 0 0 0 14.347 22c6.413 0 9.919-5.385 9.919-10.052a9.13 9.13 0 0 0-.013-.457A7.004 7.004 0 0 0 26 9.657z"/></g><g><g><text dominant-baseline="text-before-edge" style="line-height:30px" fill="#fff" font-family="'Poppins','Poppins-Regular'" font-size="14" font-style="none" font-weight="400" transform="translate(38 9)"><tspan style="font-kerning:normal">90</tspan></text></g></g></g></g></svg>