<svg xmlns="http://www.w3.org/2000/svg" width="70" height="30" viewBox="0 0 70 30"><g><g><g><path fill="#4267b2" d="M3 0h64a3 3 0 0 1 3 3v24a3 3 0 0 1-3 3H3a3 3 0 0 1-3-3V3a3 3 0 0 1 3-3z"/></g><g><path fill="#fff" d="M26.006 6H9.993A.994.994 0 0 0 9 6.994v16.012c0 .55.445.994.993.994h8.62v-6.97h-2.345v-2.718h2.346V12.31c0-2.325 1.42-3.591 3.494-3.591.994 0 1.847.074 2.095.107v2.43h-1.438c-1.128 0-1.346.536-1.346 1.323v1.734h2.691l-.351 2.716h-2.34V24h4.587a.994.994 0 0 0 .994-.993V6.993A.994.994 0 0 0 26.006 6z"/></g><g><g><text dominant-baseline="text-before-edge" style="line-height:30px" fill="#fff" font-family="'Poppins','Poppins-Regular'" font-size="14" font-style="none" font-weight="400" transform="translate(40 9)"><tspan style="font-kerning:normal">67</tspan></text></g></g></g></g></svg>