<svg xmlns="http://www.w3.org/2000/svg" width="18" height="17" viewBox="0 0 18 17"><g><g><path fill="#7e7e7e" d="M4.816 10.815a.352.352 0 0 1-.352-.608.35.35 0 1 1 .352.608zm-1.44 2.422A2.466 2.466 0 0 1 .33 12.184a2.455 2.455 0 0 1 .9-3.355l2.986-1.721 4.592-5.84c.196-.305.525-.485.888-.485h.014c.376.004.712.201.9.526l1.297 2.243 1.353-.081a.352.352 0 0 1 .325.174l.703 1.216a.35.35 0 0 1-.01.369l-.747 1.129 1.168 2.02a1.052 1.052 0 0 1-.855 1.577l-6.734 1.319.458.79a.35.35 0 0 1-.13.48l-.912.526 1.054 1.823c.39.672.158 1.53-.515 1.918a1.41 1.41 0 0 1-1.92-.514zm3.596 2.009l-1.757-3.04-1.218.702 1.757 3.04a.705.705 0 0 0 .96.256.7.7 0 0 0 .258-.958zm-.188-3.134l-.352-.608-.609.351.352.608zm5.517-7.88l.838 1.447.433-.655-.486-.84zm-2.903-2.58c-.018.03-.03.042-.12.158l4.325 7.478c.122-.022.144-.031.192-.032a.35.35 0 0 0 .296-.526l-4.089-7.07a.346.346 0 0 0-.3-.176.344.344 0 0 0-.304.169zM4.875 7.409l1.865 3.224 6.133-1.2L8.81 2.404zM.939 11.833a1.762 1.762 0 0 0 2.402.643l2.74-1.58-1.758-3.039-2.74 1.58a1.751 1.751 0 0 0-.643 2.397zm2.788-.796a.35.35 0 0 1-.13.48l-.608.35a1.057 1.057 0 0 1-1.44-.385.352.352 0 0 1 .609-.35.353.353 0 0 0 .48.128l.608-.351a.352.352 0 0 1 .48.128zm13.751-9.504a.352.352 0 0 1 .342.614l-1.959 1.088a.352.352 0 0 1-.342-.614zm-.205 3.635a.35.35 0 1 1-.182.678l-1.359-.364a.351.351 0 1 1 .182-.677zM13.859.258a.351.351 0 0 1 .68.182l-.365 1.356a.352.352 0 0 1-.679-.182z"/></g></g></svg>