<svg xmlns="http://www.w3.org/2000/svg" width="50" height="50" viewBox="0 0 50 50"><g><g><path fill="#7e7e7e" d="M35.592 32.247c-2.678 2.992-6.539 4.71-10.592 4.71-4.052 0-7.913-1.717-10.592-4.71a1.087 1.087 0 1 1 1.62-1.45c2.267 2.534 5.537 3.986 8.972 3.986 3.436 0 6.705-1.452 8.973-3.986a1.087 1.087 0 1 1 1.62 1.45zM50 25c0 13.785-11.215 25-25 25S0 38.785 0 25 11.215 0 25 0s25 11.215 25 25zm-2.174 0c0-12.587-10.24-22.826-22.826-22.826C12.413 2.174 2.174 12.413 2.174 25S12.413 47.826 25 47.826 47.826 37.587 47.826 25zm-8.696-2.174a1.087 1.087 0 0 1-2.174 0 3.265 3.265 0 0 0-3.26-3.26 3.265 3.265 0 0 0-3.261 3.26 1.087 1.087 0 0 1-2.174 0 5.441 5.441 0 0 1 5.435-5.435 5.441 5.441 0 0 1 5.434 5.435zm-22.826-3.26a3.265 3.265 0 0 0-3.26 3.26 1.087 1.087 0 0 1-2.174 0 5.441 5.441 0 0 1 5.434-5.435 5.441 5.441 0 0 1 5.435 5.435 1.087 1.087 0 0 1-2.174 0 3.265 3.265 0 0 0-3.26-3.26z"/></g></g></svg>